# xmcd CD database file
#
# Track frame offsets:
#	150
#	15921
#	37908
#	58614
#	83635
#	103118
#	123337
#	143669
#	166751
#	183403
#	207334
#	237260
#	255336
#	266258
#	282211
#
# Disc length: 3969 seconds
#
# Revision: 1
# Processed by: cddbd v1.5.2PL0 Copyright (c) Steve Scherf et al.
# Submitted via: CDex 1.70beta2
#
DISCID=b90f7f0f
DTITLE=Happy Jazz Paraders - Jubilee
DYEAR=2008
DGENRE=Jazz
TTITLE0=Alabama Jubilee
TTITLE1=Buddy Bolden Blues
TTITLE2=At The Jazzbandball
TTITLE3=Tishomingo Blues
TTITLE4=Honeysuckle Rose
TTITLE5=Pretty Baby
TTITLE6=Si tu vois ma mère
TTITLE7=Avalon
TTITLE8=Precious Lord Lead Me On
TTITLE9=You And I Were Young  Maggie
TTITLE10=I’m Confessing That I Love You
TTITLE11=When I Grow Too Old To Dream
TTITLE12=Wild Cat Blues
TTITLE13=Does Jesus Care For Me
TTITLE14=Lili Marleen
EXTD=YEAR: 2008
EXTT0=
EXTT1=
EXTT2=
EXTT3=
EXTT4=
EXTT5=
EXTT6=
EXTT7=
EXTT8=
EXTT9=
EXTT10=
EXTT11=
EXTT12=
EXTT13=
EXTT14=
PLAYORDER=
